<?xml version="1.0" standalone="no"?><!DOCTYPE svg PUBLIC "-//W3C//DTD SVG 1.1//EN" "http://www.w3.org/Graphics/SVG/1.1/DTD/svg11.dtd"><svg t="1522763734632" class="icon" style="" viewBox="0 0 1024 1024" version="1.1" xmlns="http://www.w3.org/2000/svg" p-id="1198" xmlns:xlink="http://www.w3.org/1999/xlink" width="200" height="200"><defs><style type="text/css"></style></defs><path d="M431.614693 471.535403c20.455891 21.044292 49.464575 33.564443 81.286328 33.564443l0 0c31.242562 0 60.232826-12.519128 80.68974-33.564443 21.035082-20.485567 33.534767-49.503461 33.534767-80.796164l0 0 0 0c0-31.858592-12.500709-60.867276-33.534767-81.353866-20.455891-21.052478-49.446156-33.56342-80.68974-33.56342l0 0c-31.821753 0-60.829414 12.511965-81.286328 33.56342l0 0c-21.014616 20.48659-33.517371 49.496298-33.517371 81.353866C398.097322 422.031942 410.600077 451.049836 431.614693 471.535403L431.614693 471.535403zM395.247414 272.980231c30.126134-30.154787 71.616084-48.935526 117.653607-48.935526l0 0c45.459355 0 86.949304 18.780739 117.076462 48.935526 30.107715 30.145577 48.866964 71.684646 48.866964 117.759007 0 45.51666-18.759249 87.046518-48.866964 117.201306-30.127158 30.16502-71.617108 48.927339-117.076462 48.927339l0 0c-46.036499 0-87.526449-18.762319-117.653607-48.927339-30.126134-30.154787-48.867988-71.684646-48.867988-117.201306C346.379427 344.664877 365.12128 303.125809 395.247414 272.980231L395.247414 272.980231zM237.835292 390.739239c0 221.891669 241.528915 461.397508 275.064706 493.836315 33.515325-32.438806 274.486538-271.944646 274.486538-493.836315l0 0c0-76.229149-30.68486-145.073096-80.132038-195.135282-50.005904-49.503461-118.770034-80.216973-194.355523-80.216973l0 0c-76.162634 0-144.92881 30.713512-194.933691 80.216973C268.521175 245.667166 237.835292 314.51009 237.835292 390.739239L237.835292 390.739239zM281.600051 159.188582c59.096956-59.163471 140.922566-95.578846 231.30097-95.578846l0 0c89.780793 0 171.624822 36.414351 230.721779 95.578846 59.117422 59.173704 95.484701 141.095505 95.484701 231.550657 0 261.148765-317.692572 560.964178-322.238099 566.088896l-0.558725 0 0 0-3.986801 3.408633-3.408633-3.408633c-1.13587-1.137916-322.796824-303.245536-322.796824-566.088896C186.116373 300.284087 222.483652 218.362286 281.600051 159.188582L281.600051 159.188582z" p-id="1199"></path></svg>