<?xml version="1.0" standalone="no"?><!DOCTYPE svg PUBLIC "-//W3C//DTD SVG 1.1//EN" "http://www.w3.org/Graphics/SVG/1.1/DTD/svg11.dtd"><svg t="1522763676724" class="icon" style="" viewBox="0 0 1024 1024" version="1.1" xmlns="http://www.w3.org/2000/svg" p-id="970" xmlns:xlink="http://www.w3.org/1999/xlink" width="200" height="200"><defs><style type="text/css"></style></defs><path d="M512 85.333333c141.226667 0 256 113.493333 256 253.866667C768 529.493333 512 810.666667 512 810.666667S256 529.493333 256 339.2C256 198.826667 370.773333 85.333333 512 85.333333m0 170.666667a85.333333 85.333333 0 0 0-85.333333 85.333333 85.333333 85.333333 0 0 0 85.333333 85.333334 85.333333 85.333333 0 0 0 85.333333-85.333334 85.333333 85.333333 0 0 0-85.333333-85.333333m341.333333 554.666667c0 94.293333-152.746667 170.666667-341.333333 170.666666s-341.333333-76.373333-341.333333-170.666666c0-55.04 52.053333-104.106667 132.693333-135.253334l27.306667 38.826667C284.586667 733.44 256 759.893333 256 789.333333c0 58.88 114.773333 106.666667 256 106.666667s256-47.786667 256-106.666667c0-29.44-28.586667-55.893333-74.666667-75.093333l27.306667-38.826667C801.28 706.56 853.333333 755.626667 853.333333 810.666667z" fill="" p-id="971"></path></svg>